<svg xmlns="http://www.w3.org/2000/svg" viewBox="0 0 24 24"><defs><style>.cls-1{fill:#ccc;}.cls-2{fill:#4d4d4d;}</style></defs><title>Element 4221</title><g id="Ebene_2" data-name="Ebene 2"><g id="Inputs"><g id="Circle"><path class="cls-1" d="M12,23.75A11.75,11.75,0,1,1,23.75,12,11.76,11.76,0,0,1,12,23.75Z"/><path class="cls-2" d="M12,.5A11.5,11.5,0,1,1,.5,12,11.51,11.51,0,0,1,12,.5M12,0A12,12,0,1,0,24,12,12,12,0,0,0,12,0Z"/></g><g id="Kästchen"><rect class="cls-2" x="11.06" y="7.16" width="1.89" height="1.89" transform="translate(-2.21 10.86) rotate(-45)"/><rect class="cls-2" x="11.06" y="9.82" width="1.89" height="1.89" transform="translate(-4.1 11.64) rotate(-45)"/><rect class="cls-2" x="8.39" y="7.16" width="1.89" height="1.89" transform="translate(-2.99 8.97) rotate(-45)"/><rect class="cls-2" x="13.72" y="7.16" width="1.89" height="1.89" transform="translate(-1.43 12.74) rotate(-45)"/></g><g id="TIDAL"><path class="cls-2" d="M6,17.19H5.46V15.3h-.7v-.46H6.68v.46H6Z"/><path class="cls-2" d="M8.82,17.19H8.28V14.84h.54Z"/><path class="cls-2" d="M18.31,16.73h.93v.46H17.77V14.84h.54Z"/><path class="cls-2" d="M10.61,14.84h.87A1.15,1.15,0,0,1,12.76,16a1.18,1.18,0,0,1-1.25,1.18h-.9Zm.52,1.89h.33a.69.69,0,0,0,.75-.72.68.68,0,0,0-.73-.71h-.35Z"/><path class="cls-2" d="M15.74,17.19h.6l-1-2.35h-.56l-1,2.35h.58l.17-.46h1Zm-1-.88.36-.92.35.92Z"/></g></g></g></svg>